<?xml version="1.0" encoding="UTF-8"?>
<svg id="v2" xmlns="http://www.w3.org/2000/svg" viewBox="0 0 5955 1065">
  <defs>
    <style>
      .cls-1 {
        fill: #0096d4;
      }

      .cls-2 {
        fill: #1d1e1d;
      }

      .cls-3 {
        fill: #e10913;
      }
    </style>
  </defs>
  <g id="Orizzontale_black_-2" data-name="Orizzontale (black)">
    <g>
      <g>
        <rect class="cls-3" x="-251.69" y="456.8" width="655.57" height="150.24" transform="translate(-455.82 608.02) rotate(-90)"/>
        <path class="cls-3" d="m208.14,580.03l298.18,484.55h218.52l-327.79-532.65L724.84-.73h-218.52L208.14,483.82c-18.15,29.5-18.15,66.71,0,96.21Z"/>
      </g>
      <g>
        <path class="cls-1" d="m1301.61,532.32l-484.55-298.18V15.61s532.65,327.79,532.65,327.79L1882.37,15.61v218.52s-484.55,298.18-484.55,298.18c-29.5,18.15-66.71,18.15-96.21,0Z"/>
        <polygon class="cls-1" points="1732.13 946.68 1882.37 1039.13 1882.37 261.45 1732.13 353.9 1732.13 946.68"/>
        <polygon class="cls-1" points="967.3 353.9 817.06 261.45 817.06 1048.23 967.3 955.78 967.3 353.9"/>
      </g>
      <g>
        <path class="cls-2" d="m2469.29,679.9c0,19.72-2.5,37.46-7.51,53.2-5.01,15.75-11.63,29.58-19.87,41.5-8.24,11.92-17.81,22.08-28.7,30.46-10.89,8.39-22.3,15.23-34.22,20.53-11.92,5.3-23.99,9.2-36.21,11.7-12.22,2.5-23.77,3.75-34.66,3.75h-310.83v-114.79h309.94c15.6,0,27.37-3.97,35.32-11.92s11.92-19.43,11.92-34.44c-1.48-30.61-16.93-45.92-46.36-45.92h-177.93c-25.32,0-46.8-4.42-64.46-13.25s-32.01-19.87-43.05-33.11c-11.04-13.25-18.99-27.52-23.84-42.83-4.86-15.3-7.29-29.58-7.29-42.83,0-25.61,4.56-47.17,13.69-64.68,9.12-17.51,20.6-31.71,34.44-42.61,13.83-10.89,28.84-18.76,45.04-23.62,16.18-4.86,31.35-7.28,45.48-7.28h282.13v114.79h-281.25c-5.89,0-10.53.66-13.91,1.99-3.39,1.32-5.89,3.09-7.51,5.3-1.62,2.21-2.58,4.57-2.87,7.06-.3,2.5-.44,4.93-.44,7.28.29,4.71,1.17,8.39,2.65,11.04,1.47,2.65,3.31,4.57,5.52,5.74,2.21,1.18,4.71,1.84,7.51,1.99,2.79.15,5.52.22,8.17.22h177.93c29.43,0,54.45,5.3,75.06,15.89,20.6,10.6,37.23,23.92,49.89,39.96,12.65,16.05,21.86,33.49,27.59,52.32,5.74,18.84,8.61,36.36,8.61,52.54Z"/>
        <path class="cls-2" d="m3068.87,679.9c0,19.72-2.5,37.46-7.51,53.2-5.01,15.75-11.63,29.58-19.87,41.5-8.24,11.92-17.81,22.08-28.7,30.46-10.89,8.39-22.3,15.23-34.22,20.53s-23.99,9.2-36.2,11.7c-12.22,2.5-23.77,3.75-34.66,3.75h-207.07c-15.89,0-33.27-2.79-52.1-8.39-18.84-5.59-36.28-14.79-52.32-27.59-16.05-12.8-29.44-29.43-40.18-49.89-10.75-20.45-16.12-45.54-16.12-75.28v-155.41c0-29.43,5.37-54.38,16.12-74.84,10.74-20.45,24.13-37.09,40.18-49.89,16.04-12.8,33.48-22,52.32-27.59,18.83-5.59,36.2-8.39,52.1-8.39h207.07c29.43,0,54.45,5.3,75.06,15.89,20.6,10.6,37.23,23.92,49.89,39.96,12.65,16.05,21.85,33.49,27.59,52.32,5.74,18.84,8.61,36.36,8.61,52.54v155.41Zm-114.79-154.53c0-15.89-3.97-27.66-11.92-35.32-7.95-7.65-19.43-11.48-34.44-11.48h-206.19c-15.31,0-26.93,3.9-34.88,11.7-7.95,7.8-11.92,19.21-11.92,34.22v155.41c0,15.01,3.97,26.49,11.92,34.44s19.57,11.92,34.88,11.92h206.19c15.6,0,27.22-3.97,34.88-11.92,7.65-7.95,11.48-19.43,11.48-34.44v-154.53Z"/>
        <path class="cls-2" d="m3376.17,841.05h-51.22c-16.49,0-34.07-2.79-52.76-8.39-18.7-5.59-36.14-14.79-52.32-27.59-16.19-12.8-29.58-29.43-40.18-49.89-10.6-20.45-15.89-45.54-15.89-75.28V162h114.79v517.9c0,14.13,4.42,25.39,13.25,33.78,8.83,8.39,19.87,12.58,33.11,12.58h51.22v114.79Z"/>
        <path class="cls-2" d="m3964.71,783.22c0,8.24-1.48,15.89-4.42,22.96-2.95,7.06-7,13.18-12.14,18.32s-11.19,9.2-18.1,12.14c-6.92,2.95-14.35,4.42-22.3,4.42h-259.61c-14.13,0-29.22-1.61-45.26-4.86-16.05-3.24-31.87-8.46-47.46-15.67-15.6-7.21-30.69-16.34-45.26-27.37-14.57-11.04-27.31-24.43-38.19-40.18-10.89-15.74-19.65-33.92-26.27-54.53-6.62-20.6-9.93-43.85-9.93-69.76v-264.91h114.79v264.91c0,15.01,2.57,28.48,7.73,40.4,5.15,11.92,12.14,22.15,20.97,30.69,8.83,8.54,19.21,15.09,31.13,19.65,11.92,4.57,24.79,6.84,38.63,6.84h200.89v-362.48h114.79v419.44Z"/>
        <path class="cls-2" d="m4506.45,478.57h-200.45v362.48h-116.12v-362.48h-149.23v-114.79h149.23v-155.86h116.12v155.86h200.45v114.79Z"/>
        <path class="cls-2" d="m4698.51,265.76h-114.79v-103.76h114.79v103.76Zm0,575.3h-114.79v-477.28h114.79v477.28Z"/>
        <path class="cls-2" d="m5327.67,679.9c0,19.72-2.5,37.46-7.51,53.2-5.01,15.75-11.63,29.58-19.87,41.5-8.24,11.92-17.81,22.08-28.7,30.46-10.89,8.39-22.3,15.23-34.22,20.53s-23.99,9.2-36.2,11.7c-12.22,2.5-23.77,3.75-34.66,3.75h-207.07c-15.89,0-33.27-2.79-52.1-8.39-18.84-5.59-36.28-14.79-52.32-27.59-16.05-12.8-29.44-29.43-40.18-49.89-10.75-20.45-16.12-45.54-16.12-75.28v-155.41c0-29.43,5.37-54.38,16.12-74.84,10.74-20.45,24.13-37.09,40.18-49.89,16.04-12.8,33.48-22,52.32-27.59,18.83-5.59,36.2-8.39,52.1-8.39h207.07c29.43,0,54.45,5.3,75.06,15.89,20.6,10.6,37.23,23.92,49.89,39.96,12.65,16.05,21.85,33.49,27.59,52.32,5.74,18.84,8.61,36.36,8.61,52.54v155.41Zm-114.79-154.53c0-15.89-3.97-27.66-11.92-35.32-7.95-7.65-19.43-11.48-34.44-11.48h-206.19c-15.31,0-26.93,3.9-34.88,11.7-7.95,7.8-11.92,19.21-11.92,34.22v155.41c0,15.01,3.97,26.49,11.92,34.44s19.57,11.92,34.88,11.92h206.19c15.6,0,27.22-3.97,34.88-11.92,7.65-7.95,11.48-19.43,11.48-34.44v-154.53Z"/>
        <path class="cls-2" d="m5954.18,841.05h-114.79v-264.91c0-15.01-2.58-28.48-7.73-40.4-5.15-11.92-12.14-22.14-20.97-30.69-8.83-8.53-19.21-15.08-31.13-19.65-11.92-4.56-24.8-6.84-38.63-6.84h-200.89v362.48h-114.79v-420.32c0-7.95,1.47-15.38,4.42-22.3,2.94-6.91,7.06-12.95,12.36-18.1,5.3-5.15,11.48-9.2,18.54-12.14,7.06-2.94,14.57-4.42,22.52-4.42h258.73c14.42,0,29.65,1.62,45.7,4.86,16.04,3.24,31.93,8.46,47.68,15.67,15.74,7.22,30.75,16.34,45.03,27.37,14.27,11.04,26.93,24.44,37.97,40.18,11.04,15.75,19.79,33.93,26.27,54.53,6.47,20.61,9.71,43.86,9.71,69.76v264.91Z"/>
      </g>
    </g>
  </g>
</svg>